g Tile
v -0.4070319 0.1554228 -0.20868
v -0.3966529 0.173347 -0.2290077
v -0.3985927 0.1773754 -0.2115166
v -0.3985927 0.1773755 0.2115165
v -0.4070319 0.1554229 0.20868
v -0.3966529 0.1733471 0.2290077
v -0.4010861 0.1554228 -0.2315672
v -0.3842381 0.1554228 -0.24816
v -0.382475 0.1773754 -0.2394331
v -0.02279378 0.1554228 -0.45684
v -0.01611764 0.1773754 -0.4509497
v 4.66903E-09 0.173347 -0.4580154
v 3.793587E-09 0.1554228 -0.4631343
v -0.02279378 0.03104556 -0.45684
v 5.544474E-09 0.03104555 -0.4631343
v 4.66903E-09 0.01312135 -0.4580154
v -0.01611764 0.009092988 -0.4509497
v -0.3842381 0.03104559 -0.24816
v -0.382475 0.009093022 -0.2394331
v -0.3966529 0.01312139 -0.2290077
v -0.4010861 0.03104559 -0.2315672
v -0.4070319 0.03104559 -0.20868
v -0.3985927 0.009093026 -0.2115165
v -0.4070319 0.03104566 0.20868
v -0.3985927 0.009093096 0.2115165
v -0.3966529 0.01312147 0.2290077
v -0.4010861 0.03104567 0.2315672
v -0.4010861 0.1554229 0.2315672
v -0.3842381 0.03104567 0.24816
v -0.382475 0.009093099 0.2394331
v -0.3842381 0.1554229 0.24816
v -0.382475 0.1773755 0.2394331
v -0.01611764 0.1773755 0.4509497
v -0.02279378 0.0310457 0.45684
v -0.01611764 0.009093134 0.4509497
v 4.66903E-09 0.0131215 0.4580154
v -0.02279378 0.1554229 0.45684
v 4.66903E-09 0.1733471 0.4580154
v 3.793587E-09 0.03104571 0.4631343
v 5.544474E-09 0.1554229 0.4631343
v 0.02279379 0.0310457 0.45684
v 0.01611765 0.009093134 0.4509497
v 0.02279379 0.1554229 0.45684
v 0.01611765 0.1773755 0.4509497
v 0.382475 0.1773755 0.2394331
v 0.3842381 0.03104567 0.24816
v 0.382475 0.009093099 0.2394331
v 0.3966529 0.01312147 0.2290077
v 0.3842381 0.1554229 0.24816
v 0.3966529 0.1733471 0.2290077
v 0.4010861 0.03104567 0.2315672
v 0.4010861 0.1554229 0.2315672
v 0.4070319 0.03104566 0.20868
v 0.3985927 0.009093096 0.2115165
v 0.4070319 0.1554229 0.20868
v 0.3985927 0.1773755 0.2115165
v 0.3985927 0.1773754 -0.2115166
v 0.4070319 0.03104559 -0.20868
v 0.3985927 0.009093026 -0.2115165
v 0.3966529 0.01312139 -0.2290077
v 0.4070319 0.1554228 -0.20868
v 0.3966529 0.173347 -0.2290077
v 0.4010861 0.03104559 -0.2315672
v 0.4010861 0.1554228 -0.2315672
v 0.3842381 0.03104559 -0.24816
v 0.382475 0.009093022 -0.2394331
v 0.3842381 0.1554228 -0.24816
v 0.382475 0.1773754 -0.2394331
v 0.01611765 0.1773754 -0.4509497
v 0.02279379 0.03104556 -0.45684
v 0.01611765 0.009092988 -0.4509497
v 4.66903E-09 0.01312135 -0.4580154
v 5.544474E-09 0.03104555 -0.4631343
v 0.02279379 0.1554228 -0.45684
v 4.66903E-09 0.173347 -0.4580154
v 3.793587E-09 0.1554228 -0.4631343
v -0.3807119 0.1864685 -0.2198042
v -0.3985927 0.1773754 -0.2115166
v -0.3966529 0.173347 -0.2290077
v -0.3807119 0.1864685 0.2198041
v 0.3807119 0.1864685 -0.2198042
v -0.382475 0.1773754 -0.2394331
v -0.3985927 0.1773755 0.2115165
v -0.3966529 0.1733471 0.2290077
v -0.01611764 0.1773754 -0.4509497
v -0.382475 0.1773755 0.2394331
v 4.66903E-09 0.1864684 -0.4396083
v 4.66903E-09 0.173347 -0.4580154
v 0.01611765 0.1773754 -0.4509497
v 0.382475 0.1773754 -0.2394331
v 0.3966529 0.173347 -0.2290077
v 0.3985927 0.1773754 -0.2115166
v 0.3985927 0.1773755 0.2115165
v 0.3807119 0.1864685 0.2198041
v 0.3966529 0.1733471 0.2290077
v 0.382475 0.1773755 0.2394331
v 0.01611765 0.1773755 0.4509497
v 4.66903E-09 0.1864686 0.4396083
v 4.66903E-09 0.1733471 0.4580154
v -0.01611764 0.1773755 0.4509497
v -0.3807119 -3.501773E-08 -0.2198041
v -0.382475 0.009093022 -0.2394331
v -0.3966529 0.01312139 -0.2290077
v -0.3985927 0.009093026 -0.2115165
v -0.3985927 0.009093096 0.2115165
v 4.66903E-09 -7.003545E-08 -0.4396083
v -0.01611764 0.009092988 -0.4509497
v 4.66903E-09 0.01312135 -0.4580154
v 0.01611765 0.009092988 -0.4509497
v 0.3807119 -3.501773E-08 -0.2198041
v 0.3807119 3.501773E-08 0.2198041
v 0.382475 0.009093022 -0.2394331
v 0.3966529 0.01312139 -0.2290077
v 0.3985927 0.009093026 -0.2115165
v 0.3985927 0.009093096 0.2115165
v 0.3966529 0.01312147 0.2290077
v 0.382475 0.009093099 0.2394331
v -0.3807119 3.501773E-08 0.2198041
v -0.3966529 0.01312147 0.2290077
v -0.382475 0.009093099 0.2394331
v -0.01611764 0.009093134 0.4509497
v 4.66903E-09 7.003545E-08 0.4396083
v 0.01611765 0.009093134 0.4509497
v 4.66903E-09 0.0131215 0.4580154
vt 0.1294636 0.2272634
vt 0.1303302 0.1989349
vt 0.129569 0.1913444
vt 0.113851 0.1913444
vt 0.1139565 0.2272634
vt 0.1128672 0.1989349
vt 0.1304415 0.2272634
vt 0.1314195 0.2272634
vt 0.131314 0.1913444
vt 0.1469266 0.2272634
vt 0.147032 0.1913444
vt 0.1476819 0.1913444
vt 0.1479045 0.2272634
vt 0.1469266 0.3087316
vt 0.1479045 0.3087316
vt 0.1479045 0.3294694
vt 0.147032 0.3446506
vt 0.1314195 0.3087316
vt 0.1313141 0.3446506
vt 0.1305528 0.33706
vt 0.1304415 0.3087316
vt 0.1294636 0.3087316
vt 0.129569 0.3446506
vt 0.1139565 0.3087316
vt 0.1138511 0.3446506
vt 0.1130899 0.33706
vt 0.1129785 0.3087316
vt 0.1129785 0.2272634
vt 0.1120006 0.3087316
vt 0.112106 0.3446506
vt 0.1120006 0.2272634
vt 0.112106 0.1913444
vt 0.09638804 0.1913444
vt 0.09649345 0.3087316
vt 0.09638807 0.3446506
vt 0.09562683 0.33706
vt 0.09649345 0.2272634
vt 0.09540421 0.198935
vt 0.09551552 0.3087316
vt 0.09551552 0.2272634
vt 0.09453759 0.3087316
vt 0.09464297 0.3446506
vt 0.09453759 0.2272634
vt 0.09464297 0.1913444
vt 0.07892507 0.1913444
vt 0.07903045 0.3087316
vt 0.07892507 0.3446506
vt 0.07816386 0.33706
vt 0.07903045 0.2272634
vt 0.07794118 0.198935
vt 0.07805252 0.3087316
vt 0.07805252 0.2272634
vt 0.07707459 0.3087316
vt 0.07717997 0.3446506
vt 0.07707459 0.2272634
vt 0.07717997 0.1913444
vt 0.06146204 0.1913444
vt 0.06156743 0.3087316
vt 0.06146204 0.3446506
vt 0.06070083 0.33706
vt 0.06156743 0.2272634
vt 0.06047821 0.198935
vt 0.06058955 0.3087316
vt 0.06058949 0.2272634
vt 0.05961162 0.3087316
vt 0.059717 0.3446506
vt 0.05961156 0.2272634
vt 0.059717 0.1913444
vt 0.04399908 0.1913444
vt 0.04410446 0.3087316
vt 0.04399908 0.3446506
vt 0.04334915 0.3446506
vt 0.04312652 0.3087316
vt 0.04410446 0.2272634
vt 0.04312652 0.2065255
vt 0.04312652 0.2272634
vt 0.1840267 1.042514
vt 0.1529338 1.048074
vt 0.1675475 1.071146
vt -0.1375073 0.4817544
vt 1.150177 0.4779173
vt 0.1949116 1.072408
vt -0.1583053 0.5063635
vt -0.17106 0.481828
vt 0.8173835 1.065125
vt -0.1583847 0.4572688
vt 0.8279638 1.035332
vt 0.8445646 1.063942
vt 0.8593294 1.040981
vt 1.170525 0.5019754
vt 1.183152 0.4778288
vt 1.17057 0.45355
vt 0.8523682 -0.08137965
vt 0.8212987 -0.07564658
vt 0.8377778 -0.1042766
vt 0.8105822 -0.105597
vt 0.1904393 -0.1078483
vt 0.179861 -0.07854295
vt 0.1635818 -0.1066585
vt 0.1491413 -0.0839656
vt 0.04787159 0.14669
vt 0.04679304 0.1515464
vt 0.04312652 0.1483492
vt 0.04312652 0.1451959
vt 0.04312652 0.06892973
vt 0.1165079 0.1863171
vt 0.1128414 0.1896794
vt 0.1155723 0.1912561
vt 0.1201744 0.1896794
vt 0.1851442 0.14669
vt 0.1851442 0.06743558
vt 0.1862228 0.1515464
vt 0.1889537 0.1499697
vt 0.1898893 0.1451958
vt 0.1898893 0.06892973
vt 0.1898893 0.06577632
vt 0.1862227 0.06257915
vt 0.04787159 0.06743562
vt 0.04406208 0.06415588
vt 0.04679304 0.06257918
vt 0.1128414 0.02444613
vt 0.1165079 0.0278084
vt 0.1201744 0.02444613
vt 0.1174434 0.02286944
vn -0.9794392 0.1673052 -0.1127286
vn -0.736623 0.5258466 -0.4252904
vn -0.7497355 0.651182 -0.1177229
vn -0.7497357 0.6511817 0.1177227
vn -0.9794393 0.1673048 0.1127287
vn -0.7366233 0.5258465 0.4252899
vn -0.8557453 0.153623 -0.4940649
vn -0.5873454 0.1673043 -0.7918552
vn -0.4768187 0.6511812 -0.5904294
vn -0.392094 0.1673042 -0.9045836
vn -0.2729173 0.6511812 -0.7081519
vn 0 0.5258459 -0.8505799
vn 0 0.153622 -0.9881296
vn -0.3920944 -0.1673043 -0.9045835
vn 0 -0.1536222 -0.9881296
vn 0 -0.5258462 -0.8505797
vn -0.2729176 -0.6511815 -0.7081515
vn -0.5873454 -0.1673045 -0.7918552
vn -0.4768189 -0.6511813 -0.5904292
vn -0.7366237 -0.5258459 -0.4252901
vn -0.8557453 -0.1536226 -0.494065
vn -0.9794393 -0.1673049 -0.1127287
vn -0.7497361 -0.6511814 -0.1177227
vn -0.9794392 -0.1673054 0.1127287
vn -0.7497356 -0.6511818 0.117723
vn -0.7366233 -0.5258463 0.42529
vn -0.8557451 -0.1536232 0.4940649
vn -0.8557451 0.1536226 0.4940651
vn -0.5873454 -0.1673044 0.7918552
vn -0.4768189 -0.6511812 0.5904292
vn -0.5873454 0.1673044 0.7918552
vn -0.4768188 0.6511816 0.5904289
vn -0.2729177 0.6511815 0.7081515
vn -0.3920938 -0.1673044 0.9045838
vn -0.2729169 -0.6511815 0.7081519
vn 0 -0.525846 0.8505799
vn -0.3920944 0.1673043 0.9045835
vn 0 0.5258461 0.8505797
vn 0 -0.1536222 0.9881296
vn 0 0.1536222 0.9881296
vn 0.392094 -0.1673043 0.9045837
vn 0.2729171 -0.6511814 0.7081518
vn 0.3920945 0.1673044 0.9045834
vn 0.2729178 0.6511816 0.7081513
vn 0.4768187 0.6511816 0.5904289
vn 0.5873454 -0.1673043 0.7918552
vn 0.476819 -0.6511812 0.5904293
vn 0.7366233 -0.5258462 0.4252902
vn 0.5873454 0.1673045 0.7918552
vn 0.7366233 0.5258466 0.4252899
vn 0.8557451 -0.1536231 0.494065
vn 0.8557451 0.1536228 0.4940649
vn 0.9794392 -0.1673053 0.1127287
vn 0.7497356 -0.6511818 0.117723
vn 0.9794392 0.167305 0.1127287
vn 0.7497356 0.6511819 0.1177227
vn 0.7497355 0.651182 -0.1177229
vn 0.9794392 -0.1673049 -0.1127286
vn 0.749736 -0.6511816 -0.1177227
vn 0.7366236 -0.525846 -0.42529
vn 0.9794392 0.1673053 -0.1127286
vn 0.736623 0.5258465 -0.4252905
vn 0.8557453 -0.1536227 -0.4940648
vn 0.8557451 0.1536229 -0.4940649
vn 0.5873455 -0.1673045 -0.7918551
vn 0.4768189 -0.6511814 -0.5904291
vn 0.5873454 0.1673043 -0.7918552
vn 0.4768187 0.6511811 -0.5904296
vn 0.2729173 0.6511812 -0.7081519
vn 0.3920942 -0.1673043 -0.9045836
vn 0.2729174 -0.6511816 -0.7081516
vn 0 -0.5258462 -0.8505797
vn 0 -0.1536222 -0.9881296
vn 0.392094 0.1673044 -0.9045836
vn 0 0.5258459 -0.8505799
vn 0 0.153622 -0.9881296
vn -0.2797193 0.9464017 -0.1614962
vn -0.7497355 0.651182 -0.1177229
vn -0.736623 0.5258466 -0.4252904
vn -0.2797193 0.9464018 0.1614958
vn 0.2797193 0.9464017 -0.1614964
vn -0.4768187 0.6511812 -0.5904294
vn -0.7497357 0.6511817 0.1177227
vn -0.7366233 0.5258465 0.4252899
vn -0.2729173 0.6511812 -0.7081519
vn -0.4768188 0.6511816 0.5904289
vn 0 0.9464017 -0.322992
vn 0 0.5258459 -0.8505799
vn 0.2729173 0.6511812 -0.7081519
vn 0.4768187 0.6511811 -0.5904296
vn 0.736623 0.5258465 -0.4252905
vn 0.7497355 0.651182 -0.1177229
vn 0.7497356 0.6511819 0.1177227
vn 0.2797193 0.9464018 0.1614958
vn 0.7366233 0.5258466 0.4252899
vn 0.4768187 0.6511816 0.5904289
vn 0.2729178 0.6511816 0.7081513
vn 0 0.9464018 0.3229914
vn 0 0.5258461 0.8505797
vn -0.2729177 0.6511815 0.7081515
vn -0.2797197 -0.9464015 -0.161496
vn -0.4768189 -0.6511813 -0.5904292
vn -0.7366237 -0.5258459 -0.4252901
vn -0.7497361 -0.6511814 -0.1177227
vn -0.7497356 -0.6511818 0.117723
vn 0 -0.9464018 -0.3229915
vn -0.2729176 -0.6511815 -0.7081515
vn 0 -0.5258462 -0.8505797
vn 0.2729174 -0.6511816 -0.7081516
vn 0.2797197 -0.9464015 -0.161496
vn 0.2797197 -0.9464015 0.1614963
vn 0.4768189 -0.6511814 -0.5904291
vn 0.7366236 -0.525846 -0.42529
vn 0.749736 -0.6511816 -0.1177227
vn 0.7497356 -0.6511818 0.117723
vn 0.7366233 -0.5258462 0.4252902
vn 0.476819 -0.6511812 0.5904293
vn -0.2797197 -0.9464015 0.1614963
vn -0.7366233 -0.5258463 0.42529
vn -0.4768189 -0.6511812 0.5904292
vn -0.2729169 -0.6511815 0.7081519
vn 0 -0.9464018 0.3229919
vn 0.2729171 -0.6511814 0.7081518
vn 0 -0.525846 0.8505799
g Tile_0
f 3/3/3 2/2/2 1/1/1
f 4/4/4 3/3/3 1/1/1
f 5/5/5 4/4/4 1/1/1
f 6/6/6 4/4/4 5/5/5
f 2/2/2 7/7/7 1/1/1
f 7/7/7 2/2/2 8/8/8
f 2/2/2 9/9/9 8/8/8
f 8/8/8 9/9/9 10/10/10
f 9/9/9 11/11/11 10/10/10
f 11/11/11 12/12/12 10/10/10
f 12/12/12 13/13/13 10/10/10
f 10/10/10 13/13/13 14/14/14
f 13/13/13 15/15/15 14/14/14
f 15/15/15 16/16/16 14/14/14
f 16/16/16 17/17/17 14/14/14
f 10/10/10 14/14/14 18/18/18
f 14/14/14 17/17/17 18/18/18
f 8/8/8 10/10/10 18/18/18
f 17/17/17 19/19/19 18/18/18
f 19/19/19 20/20/20 18/18/18
f 18/18/18 21/21/21 8/8/8
f 21/21/21 7/7/7 8/8/8
f 20/20/20 21/21/21 18/18/18
f 21/21/21 22/22/22 7/7/7
f 21/21/21 20/20/20 22/22/22
f 22/22/22 1/1/1 7/7/7
f 20/20/20 23/23/23 22/22/22
f 1/1/1 22/22/22 24/24/24
f 22/22/22 23/23/23 24/24/24
f 23/23/23 25/25/25 24/24/24
f 5/5/5 1/1/1 24/24/24
f 25/25/25 26/26/26 24/24/24
f 24/24/24 27/27/27 5/5/5
f 26/26/26 27/27/27 24/24/24
f 27/27/27 28/28/28 5/5/5
f 28/28/28 6/6/6 5/5/5
f 27/27/27 26/26/26 29/29/29
f 27/27/27 29/29/29 28/28/28
f 26/26/26 30/30/30 29/29/29
f 6/6/6 28/28/28 31/31/31
f 29/29/29 31/31/31 28/28/28
f 32/32/32 6/6/6 31/31/31
f 33/33/33 32/32/32 31/31/31
f 29/29/29 30/30/30 34/34/34
f 31/31/31 29/29/29 34/34/34
f 30/30/30 35/35/35 34/34/34
f 35/35/35 36/36/36 34/34/34
f 37/37/37 33/33/33 31/31/31
f 37/37/37 31/31/31 34/34/34
f 38/38/38 33/33/33 37/37/37
f 36/36/36 39/39/39 34/34/34
f 34/34/34 39/39/39 37/37/37
f 40/40/40 38/38/38 37/37/37
f 39/39/39 40/40/40 37/37/37
f 39/39/39 36/36/36 41/41/41
f 39/39/39 41/41/41 40/40/40
f 36/36/36 42/42/42 41/41/41
f 38/38/38 40/40/40 43/43/43
f 41/41/41 43/43/43 40/40/40
f 44/44/44 38/38/38 43/43/43
f 45/45/45 44/44/44 43/43/43
f 41/41/41 42/42/42 46/46/46
f 43/43/43 41/41/41 46/46/46
f 42/42/42 47/47/47 46/46/46
f 47/47/47 48/48/48 46/46/46
f 49/49/49 45/45/45 43/43/43
f 49/49/49 43/43/43 46/46/46
f 50/50/50 45/45/45 49/49/49
f 48/48/48 51/51/51 46/46/46
f 46/46/46 51/51/51 49/49/49
f 52/52/52 50/50/50 49/49/49
f 51/51/51 52/52/52 49/49/49
f 51/51/51 48/48/48 53/53/53
f 51/51/51 53/53/53 52/52/52
f 48/48/48 54/54/54 53/53/53
f 50/50/50 52/52/52 55/55/55
f 53/53/53 55/55/55 52/52/52
f 56/56/56 50/50/50 55/55/55
f 57/57/57 56/56/56 55/55/55
f 53/53/53 54/54/54 58/58/58
f 55/55/55 53/53/53 58/58/58
f 54/54/54 59/59/59 58/58/58
f 59/59/59 60/60/60 58/58/58
f 61/61/61 57/57/57 55/55/55
f 61/61/61 55/55/55 58/58/58
f 62/62/62 57/57/57 61/61/61
f 60/60/60 63/63/63 58/58/58
f 58/58/58 63/63/63 61/61/61
f 64/64/64 62/62/62 61/61/61
f 63/63/63 64/64/64 61/61/61
f 63/63/63 60/60/60 65/65/65
f 63/63/63 65/65/65 64/64/64
f 60/60/60 66/66/66 65/65/65
f 62/62/62 64/64/64 67/67/67
f 65/65/65 67/67/67 64/64/64
f 68/68/68 62/62/62 67/67/67
f 69/69/69 68/68/68 67/67/67
f 65/65/65 66/66/66 70/70/70
f 67/67/67 65/65/65 70/70/70
f 66/66/66 71/71/71 70/70/70
f 71/71/71 72/72/72 70/70/70
f 72/72/72 73/73/73 70/70/70
f 74/74/74 69/69/69 67/67/67
f 74/74/74 67/67/67 70/70/70
f 74/74/74 70/70/70 73/73/73
f 75/75/75 69/69/69 74/74/74
f 76/76/76 74/74/74 73/73/73
f 76/76/76 75/75/75 74/74/74
f 79/79/79 78/78/78 77/77/77
f 80/80/80 77/77/77 78/78/78
f 77/77/77 80/80/80 81/81/81
f 82/82/82 79/79/79 77/77/77
f 83/83/83 80/80/80 78/78/78
f 83/83/83 84/84/84 80/80/80
f 82/82/82 77/77/77 85/85/85
f 84/84/84 86/86/86 80/80/80
f 77/77/77 87/87/87 85/85/85
f 81/81/81 87/87/87 77/77/77
f 88/88/88 85/85/85 87/87/87
f 89/89/89 88/88/88 87/87/87
f 89/89/89 87/87/87 90/90/90
f 87/87/87 81/81/81 90/90/90
f 91/91/91 90/90/90 81/81/81
f 92/92/92 91/91/91 81/81/81
f 92/92/92 81/81/81 93/93/93
f 81/81/81 94/94/94 93/93/93
f 80/80/80 94/94/94 81/81/81
f 95/95/95 93/93/93 94/94/94
f 96/96/96 95/95/95 94/94/94
f 96/96/96 94/94/94 97/97/97
f 80/80/80 98/98/98 94/94/94
f 94/94/94 98/98/98 97/97/97
f 98/98/98 80/80/80 86/86/86
f 99/99/99 97/97/97 98/98/98
f 100/100/100 98/98/98 86/86/86
f 100/100/100 99/99/99 98/98/98
f 103/103/103 102/102/102 101/101/101
f 104/104/104 103/103/103 101/101/101
f 104/104/104 101/101/101 105/105/105
f 106/106/106 101/101/101 102/102/102
f 107/107/107 106/106/106 102/102/102
f 107/107/107 108/108/108 106/106/106
f 108/108/108 109/109/109 106/106/106
f 110/110/110 106/106/106 109/109/109
f 101/101/101 106/106/106 110/110/110
f 110/110/110 111/111/111 101/101/101
f 112/112/112 110/110/110 109/109/109
f 112/112/112 113/113/113 110/110/110
f 113/113/113 114/114/114 110/110/110
f 111/111/111 110/110/110 114/114/114
f 115/115/115 111/111/111 114/114/114
f 115/115/115 116/116/116 111/111/111
f 116/116/116 117/117/117 111/111/111
f 101/101/101 118/118/118 105/105/105
f 111/111/111 118/118/118 101/101/101
f 119/119/119 105/105/105 118/118/118
f 120/120/120 119/119/119 118/118/118
f 120/120/120 118/118/118 121/121/121
f 122/122/122 111/111/111 117/117/117
f 111/111/111 122/122/122 118/118/118
f 118/118/118 122/122/122 121/121/121
f 123/123/123 122/122/122 117/117/117
f 124/124/124 121/121/121 122/122/122
f 123/123/123 124/124/124 122/122/122
